<svg width="43" height="13" viewBox="0 0 43 13" fill="none" xmlns="http://www.w3.org/2000/svg">
<path d="M0 1.26547L2.18502 0L4.39842 1.26547L2.19908 2.54255L0 1.26547Z" fill="url(#paint0_linear_5706_148397)"/>
<path d="M2.19922 5.08545L4.39852 3.80859L6.57775 5.08545L4.38847 6.34689L2.19922 5.08545Z" fill="url(#paint1_linear_5706_148397)"/>
<path d="M2.19918 10.1425L4.38843 8.89398L2.19918 7.61133L0.0170898 8.87677L2.19918 10.1425Z" fill="url(#paint2_linear_5706_148397)"/>
<path d="M2.19922 2.5427L4.39852 1.26562V3.80817L2.19922 5.08506V2.5427Z" fill="url(#paint3_linear_5706_148397)"/>
<path d="M4.38847 6.34741V8.89418L2.19922 10.1427V12.6624L6.57775 10.1427V5.08594L4.38847 6.34741Z" fill="url(#paint4_linear_5706_148397)"/>
<path d="M2.19918 12.6624V10.1426L0.0170898 8.87695V11.4139L2.19918 12.6624Z" fill="url(#paint5_linear_5706_148397)"/>
<path d="M0 1.26562L2.19908 2.5427V5.08506L4.38836 6.3465V8.8933L0 6.34536V1.26562Z" fill="url(#paint6_linear_5706_148397)"/>
<path d="M12.342 6.67566C12.7597 6.41557 13.0355 5.97423 13.0355 5.48559C13.0355 4.66594 12.3183 4.07485 11.3411 4.07485H8.85059V9.59171H11.3962C12.4129 9.59171 13.1853 8.91393 13.1853 8.01546C13.1853 7.41649 12.8621 6.91997 12.342 6.67566ZM11.5933 5.73779C11.5933 6.02151 11.3962 6.21854 11.081 6.21854H10.3086V5.25703H11.081C11.3962 5.25703 11.5933 5.44618 11.5933 5.73779ZM11.1361 8.33859H10.3086V7.33768H11.1361C11.4672 7.33768 11.6799 7.54259 11.6799 7.8342C11.6799 8.13368 11.4672 8.33859 11.1361 8.33859ZM15.9545 9.72569C17.2155 9.72569 18.0509 8.95333 18.0509 7.76327V5.32796H16.585V7.70022C16.585 8.14156 16.3485 8.40953 15.9545 8.40953C15.5683 8.40953 15.324 8.14945 15.324 7.70022V5.32796H13.8581V7.76327C13.8581 8.95333 14.7014 9.72569 15.9545 9.72569ZM18.9238 4.79992H20.374V3.55469H18.9238V4.79992ZM18.916 9.58383H20.3819V5.32796H18.916V9.58383ZM21.3019 9.58383H22.7679V3.79112H21.3019V9.58383ZM26.7299 3.79112V5.48559C26.4305 5.29644 26.0679 5.19398 25.6739 5.19398C24.3735 5.19398 23.4435 6.13973 23.4435 7.4559C23.4435 8.77994 24.3735 9.73357 25.6739 9.73357C26.1704 9.73357 26.6117 9.56019 26.9585 9.26858L27.1004 9.58383H28.1801V3.79112H26.7299ZM25.8709 8.43317C25.3271 8.43317 24.9173 8.01546 24.9173 7.46378C24.9173 6.90421 25.3271 6.48651 25.8709 6.48651C26.4226 6.48651 26.8245 6.90421 26.8245 7.46378C26.8245 8.01546 26.4226 8.43317 25.8709 8.43317ZM33.4804 7.41649C33.4804 6.17126 32.5346 5.19398 31.1633 5.19398C29.8235 5.19398 28.8541 6.15549 28.8541 7.4559C28.8541 8.7563 29.8314 9.72569 31.1633 9.72569C32.2273 9.72569 33.0942 9.11884 33.3937 8.14945H31.9278C31.7938 8.40164 31.5022 8.55139 31.1633 8.55139C30.6983 8.55139 30.3909 8.29919 30.2964 7.81055H33.4567C33.4725 7.67657 33.4804 7.55047 33.4804 7.41649ZM31.1633 6.34464C31.6046 6.34464 31.912 6.5732 32.0381 6.99879H30.32C30.4382 6.5732 30.7377 6.34464 31.1633 6.34464ZM36.5276 5.3122C36.0232 5.3122 35.6606 5.45406 35.3612 5.80084L35.1326 5.32796H34.1474V9.58383H35.6134V7.42437C35.6134 6.88057 35.834 6.65201 36.3463 6.65201H36.9216V5.3122H36.5276ZM39.222 8.28343L40.8298 5.57228V5.32796H37.3148V6.62837H38.8043L37.1729 9.37104V9.58383H40.8456V8.28343H39.222Z" fill="white"/>
<path d="M41.7075 9.58398L43 9.58398L43 8.29146L41.7075 8.29146L41.7075 9.58398Z" fill="url(#paint7_linear_5706_148397)"/>
<defs>
<linearGradient id="paint0_linear_5706_148397" x1="2.19921" y1="0" x2="2.19921" y2="2.54255" gradientUnits="userSpaceOnUse">
<stop stop-color="#00B2FF"/>
<stop offset="1" stop-color="#4FD1FF"/>
</linearGradient>
<linearGradient id="paint1_linear_5706_148397" x1="4.3821" y1="6.16369" x2="4.3821" y2="3.81509" gradientUnits="userSpaceOnUse">
<stop stop-color="#00B2FF"/>
<stop offset="1" stop-color="#4FD1FF"/>
</linearGradient>
<linearGradient id="paint2_linear_5706_148397" x1="2.20278" y1="7.61133" x2="2.20278" y2="10.1425" gradientUnits="userSpaceOnUse">
<stop stop-color="#00B2FF"/>
<stop offset="1" stop-color="#4FD1FF"/>
</linearGradient>
<linearGradient id="paint3_linear_5706_148397" x1="3.54111" y1="1.85684" x2="3.53852" y2="4.9338" gradientUnits="userSpaceOnUse">
<stop stop-color="#009CFF"/>
<stop offset="1" stop-color="#005286"/>
</linearGradient>
<linearGradient id="paint4_linear_5706_148397" x1="4.87074" y1="6.25876" x2="2.20688" y2="12.3431" gradientUnits="userSpaceOnUse">
<stop stop-color="#009CFF"/>
<stop offset="1" stop-color="#005286"/>
</linearGradient>
<linearGradient id="paint5_linear_5706_148397" x1="1.10814" y1="8.87695" x2="1.10814" y2="12.6624" gradientUnits="userSpaceOnUse">
<stop stop-color="#0048A5"/>
<stop offset="1" stop-color="#00142E"/>
</linearGradient>
<linearGradient id="paint6_linear_5706_148397" x1="2.19417" y1="1.26562" x2="2.19417" y2="8.8933" gradientUnits="userSpaceOnUse">
<stop stop-color="#0157C1"/>
<stop offset="1" stop-color="#011D41"/>
</linearGradient>
<linearGradient id="paint7_linear_5706_148397" x1="42.2112" y1="9.3839" x2="42.5054" y2="8.22141" gradientUnits="userSpaceOnUse">
<stop stop-color="#009CFF"/>
<stop offset="1" stop-color="#005286"/>
</linearGradient>
</defs>
</svg>
