<svg width="99" height="99" viewBox="0 0 99 99" fill="none" xmlns="http://www.w3.org/2000/svg">
<circle cx="49.5" cy="49.5" r="49.5" fill="url(#paint0_linear_5720_150189)"/>
<path d="M22.5556 54.25L20 41.1875L27.0278 47.125L31.5 40L35.9722 47.125L43 41.1875L40.4444 54.25H22.5556ZM40.4444 57.8125C40.4444 58.525 39.9333 59 39.1667 59H23.8333C23.0667 59 22.5556 58.525 22.5556 57.8125V56.625H40.4444V57.8125Z" fill="#FF8A57"/>
<path d="M55.82 57L52.754 51.435H51.893V57H48.302V42.258H54.329C55.491 42.258 56.478 42.461 57.29 42.867C58.116 43.273 58.732 43.833 59.138 44.547C59.544 45.247 59.747 46.031 59.747 46.899C59.747 47.879 59.467 48.754 58.907 49.524C58.361 50.294 57.549 50.84 56.471 51.162L59.873 57H55.82ZM51.893 48.894H54.119C54.777 48.894 55.267 48.733 55.589 48.411C55.925 48.089 56.093 47.634 56.093 47.046C56.093 46.486 55.925 46.045 55.589 45.723C55.267 45.401 54.777 45.24 54.119 45.24H51.893V48.894ZM73.0472 50.952C73.0472 51.288 73.0262 51.638 72.9842 52.002H64.8572C64.9132 52.73 65.1442 53.29 65.5502 53.682C65.9702 54.06 66.4812 54.249 67.0832 54.249C67.9792 54.249 68.6022 53.871 68.9522 53.115H72.7742C72.5782 53.885 72.2212 54.578 71.7032 55.194C71.1992 55.81 70.5622 56.293 69.7922 56.643C69.0222 56.993 68.1612 57.168 67.2092 57.168C66.0612 57.168 65.0392 56.923 64.1432 56.433C63.2472 55.943 62.5472 55.243 62.0432 54.333C61.5392 53.423 61.2872 52.359 61.2872 51.141C61.2872 49.923 61.5322 48.859 62.0222 47.949C62.5262 47.039 63.2262 46.339 64.1222 45.849C65.0182 45.359 66.0472 45.114 67.2092 45.114C68.3432 45.114 69.3512 45.352 70.2332 45.828C71.1152 46.304 71.8012 46.983 72.2912 47.865C72.7952 48.747 73.0472 49.776 73.0472 50.952ZM69.3722 50.007C69.3722 49.391 69.1622 48.901 68.7422 48.537C68.3222 48.173 67.7972 47.991 67.1672 47.991C66.5652 47.991 66.0542 48.166 65.6342 48.516C65.2282 48.866 64.9762 49.363 64.8782 50.007H69.3722Z" fill="white"/>
<path d="M76.6216 57.168C75.9916 57.168 75.4736 56.986 75.0676 56.622C74.6756 56.244 74.4796 55.782 74.4796 55.236C74.4796 54.676 74.6756 54.207 75.0676 53.829C75.4736 53.451 75.9916 53.262 76.6216 53.262C77.2376 53.262 77.7416 53.451 78.1336 53.829C78.5396 54.207 78.7426 54.676 78.7426 55.236C78.7426 55.782 78.5396 56.244 78.1336 56.622C77.7416 56.986 77.2376 57.168 76.6216 57.168ZM76.6216 48.621C75.9916 48.621 75.4736 48.439 75.0676 48.075C74.6756 47.697 74.4796 47.235 74.4796 46.689C74.4796 46.129 74.6756 45.66 75.0676 45.282C75.4736 44.904 75.9916 44.715 76.6216 44.715C77.2376 44.715 77.7416 44.904 78.1336 45.282C78.5396 45.66 78.7426 46.129 78.7426 46.689C78.7426 47.235 78.5396 47.697 78.1336 48.075C77.7416 48.439 77.2376 48.621 76.6216 48.621Z" fill="#FF8A57"/>
<defs>
<linearGradient id="paint0_linear_5720_150189" x1="96.7645" y1="-0.903083" x2="39.0562" y2="117.062" gradientUnits="userSpaceOnUse">
<stop offset="0.305761" stop-color="#050505"/>
<stop offset="1" stop-color="#101C26"/>
</linearGradient>
</defs>
</svg>
